<?xml version="1.0" standalone="no"?>
<!DOCTYPE svg PUBLIC "-//W3C//DTD SVG 20010904//EN"
 "http://www.w3.org/TR/2001/REC-SVG-20010904/DTD/svg10.dtd">
<svg version="1.0" xmlns="http://www.w3.org/2000/svg"
 width="24.000000pt" height="24.000000pt" viewBox="0 0 24.000000 24.000000"
 preserveAspectRatio="xMidYMid meet">

<g transform="translate(0.000000,24.000000) scale(0.100000,-0.100000)"
fill="#000000" stroke="none">
<path d="M39 189 c-30 -30 -23 -57 31 -112 l50 -52 50 52 c52 54 60 76 36 108
-20 28 -140 31 -167 4z m68 -10 c8 -8 17 -7 32 3 16 9 26 10 39 2 30 -19 25
-47 -18 -89 l-40 -39 -40 39 c-22 21 -40 46 -40 55 0 34 43 53 67 29z"/>
</g>
</svg>
